<svg xmlns="http://www.w3.org/2000/svg" viewBox="0 0 256 256">
  <defs>
    <linearGradient id="grad1" x1="0%" y1="0%" x2="100%" y2="100%">
      <stop offset="0%" style="stop-color:#3b82f6;stop-opacity:1" />
      <stop offset="100%" style="stop-color:#06b6d4;stop-opacity:1" />
    </linearGradient>
  </defs>
  <rect width="256" height="256" rx="56" fill="url(#grad1)"/>
  <path d="M160 40H96a16 16 0 0 0-16 16v16H64a8 8 0 0 0 0 16h16v112a24 24 0 0 0 24 24h64a24 24 0 0 0 24-24V88h16a8 8 0 0 0 0-16h-16V56a16 16 0 0 0-16-16Zm-8 32h-48V56h48Zm-24 136a8 8 0 0 1-8 8H96a8 8 0 0 1-8-8V88h64Z" fill="white" opacity="0.95"/>
</svg>
